HIERARCHY
ROOT Hips
{
	OFFSET 0.00000 0.00000 0.00000
	CHANNELS 6 Xposition Yposition Zposition Zrotation Yrotation Xrotation 
	JOINT LHipJoint
	{
		OFFSET 0 0 0
		CHANNELS 3 Zrotation Yrotation Xrotation
		JOINT LeftHip
		{
			OFFSET 1.30186 -1.90722 0.65024
			CHANNELS 3 Zrotation Yrotation Xrotation
			JOINT LeftKnee
			{
				OFFSET 2.56413 -7.04489 0.00000
				CHANNELS 3 Zrotation Yrotation Xrotation
				JOINT LeftAnkle
				{
					OFFSET 2.79321 -7.67428 0.00000
					CHANNELS 3 Zrotation Yrotation Xrotation
					JOINT LeftToe
					{
						OFFSET 0.15723 -0.43198 2.08537
						CHANNELS 3 Zrotation Yrotation Xrotation
						End Site
						{
							OFFSET 0.00000 -0.00000 1.07411
						}
					}
				}
			}
		}
	}
	JOINT RHipJoint
	{
		OFFSET 0 0 0
		CHANNELS 3 Zrotation Yrotation Xrotation
		JOINT RightHip
		{
			OFFSET -1.28627 -1.90723 0.65024
			CHANNELS 3 Zrotation Yrotation Xrotation
			JOINT RightKnee
			{
				OFFSET -2.56567 -7.04913 0.00000
				CHANNELS 3 Zrotation Yrotation Xrotation
				JOINT RightAnkle
				{
					OFFSET -2.75597 -7.57198 0.00000
					CHANNELS 3 Zrotation Yrotation Xrotation
					JOINT RightToe
					{
						OFFSET -0.17500 -0.48081 2.22901
						CHANNELS 3 Zrotation Yrotation Xrotation
						End Site
						{
							OFFSET -0.00000 -0.00000 1.14762
						}
					}
				}
			}
		}
	}
	JOINT lowerback
	{
		OFFSET 0 0 0
		CHANNELS 3 Zrotation Yrotation Xrotation
		JOINT Chest
		{
			OFFSET -0.04522 2.07467 -0.16566
			CHANNELS 3 Zrotation Yrotation Xrotation
			JOINT Chest2
			{
				OFFSET -0.01178 2.08825 -0.05393
				CHANNELS 3 Zrotation Yrotation Xrotation
				JOINT lowerneck
				{
					OFFSET 0 0 0
					CHANNELS 3 Zrotation Yrotation Xrotation
					JOINT Neck
					{
						OFFSET -0.05182 1.80489 0.16014
						CHANNELS 3 Zrotation Yrotation Xrotation
						JOINT Head
						{
							OFFSET 0.14739 1.78840 -0.33342
							CHANNELS 3 Zrotation Yrotation Xrotation
							End Site
							{
								OFFSET 0.04364 1.83899 -0.13460
							}
						}
					}
				}
				JOINT LeftCollar
				{
					OFFSET 0 0 0
					CHANNELS 3 Zrotation Yrotation Xrotation
					JOINT LeftShoulder
					{
						OFFSET 3.01264 1.29090 -0.06579
CHANNELS 3 Zrotation Xrotation Yrotation
						JOINT LeftElbow
						{
OFFSET 0 -5.556800 0.000000
CHANNELS 3 Zrotation Xrotation Yrotation
							JOINT LeftWrist
							{
OFFSET 0 -3.639790 -0.000000
CHANNELS 3 Zrotation Xrotation Yrotation
								JOINT lhand
								{
									OFFSET 0 0 0
CHANNELS 3 Zrotation Xrotation Yrotation
									JOINT LFingers
									{
OFFSET 0 -0.569420 -0.000000
CHANNELS 3 Zrotation Xrotation Yrotation
										End Site
										{
OFFSET 0 -0.459080 -0.000000
										}
									}
								}
								JOINT LThumb
								{
OFFSET 0 0.000000 0.000000
CHANNELS 3 Zrotation Xrotation Yrotation
									End Site
									{
OFFSET 0 -0.466090 0.466090
									}
								}
							}
						}
					}
				}
				JOINT RightCollar
				{
					OFFSET 0 0 0
					CHANNELS 3 Zrotation Yrotation Xrotation
					JOINT RightShoulder
					{
						OFFSET -3.15796 1.37283 -0.36748
CHANNELS 3 Zrotation Xrotation Yrotation
						JOINT RightElbow
						{
OFFSET 0 -5.343390 0.000000
CHANNELS 3 Zrotation Xrotation Yrotation
							JOINT RightWrist
							{
OFFSET 0 -3.651010 -0.000000
CHANNELS 3 Zrotation Xrotation Yrotation
								JOINT rhand
								{
									OFFSET 0 0 0
CHANNELS 3 Zrotation Xrotation Yrotation
									JOINT RFingers
									{
OFFSET 0 -0.694250 -0.000000
CHANNELS 3 Zrotation Xrotation Yrotation
										End Site
										{
OFFSET 0 -0.559720 -0.000000
										}
									}
								}
								JOINT RThumb
								{
OFFSET 0 0.000000 0.000000
CHANNELS 3 Zrotation Xrotation Yrotation
									End Site
									{
OFFSET 0 -0.568270 0.568270
									}
								}
							}
						}
					}
				}
			}
		}
	}
}
MOTION
Frames: 8
Frame Time: 0.008333333333333333
16.097120 18.316671 3.392906 -5.871043 -0.865749 0.572308 0.000000 0.000000 0.000000 -2.759981 -16.150106 -41.127640 1.601857 7.982115 22.659815 -0.012568 6.226786 -8.536146 0.737300 -5.484311 -15.295505 0.000000 0.000000 0.000000 30.347156 -0.345808 21.686822 -0.052862 -1.461220 4.019289 -0.125058 1.076893 -6.387571 -0.160506 2.537690 -6.996683 6.895053 1.583603 2.034755 2.828191 2.279866 0.363618 -1.000955 1.126797 -0.613947 -5.377165 -3.251505 -8.271732 0.451124 -3.717577 13.710251 0.748157 -2.053734 5.615258 0.000000 0.000000 0.000000 23.072480 -60.436487 -22.419272 21.628095 -32.553864 6.384722 20.891909 -21.785790 -17.022389 0.000000 0.000000 0.000000 -7.125000 0.000000 0.000000 -6.766680 48.007633 0.504044 0.000000 0.000000 0.000000 1.997983 6.477209 -31.382817 -5.506740 -9.436942 -0.454890 -19.606457 23.058795 -30.104832 0.000000 0.000000 0.000000 7.125000 0.000000 0.000000 6.602687 -1.445817 6.812043
16.105160 18.310813 3.470718 -5.952329 -1.069247 0.553724 0.000000 0.000000 0.000000 -2.796544 -15.993917 -40.833119 1.625370 8.037545 22.828246 -0.018305 6.179557 -8.299439 0.769499 -5.599534 -15.627316 0.000000 0.000000 0.000000 30.410868 -0.230424 21.602465 -0.073385 -1.719259 4.731068 -0.128775 1.261080 -6.454313 -0.226319 3.007671 -8.304048 6.925960 1.632609 1.997465 2.810172 2.341598 0.367254 -1.036265 1.158390 -0.583040 -5.358096 -3.284714 -8.435395 0.467971 -3.757331 13.873752 0.743470 -2.072601 5.695575 0.000000 0.000000 0.000000 23.024039 -60.095061 -22.667817 21.756084 -32.699791 6.453767 20.998526 -21.787769 -17.137167 0.000000 0.000000 0.000000 -7.125000 0.000000 0.000000 -6.694039 48.143298 0.520931 0.000000 0.000000 0.000000 2.075148 6.212827 -31.039452 -5.543020 -9.497826 -0.460869 -19.468772 22.884385 -30.026495 0.000000 0.000000 0.000000 7.125000 0.000000 0.000000 6.672661 -1.340250 6.873129
16.113247 18.304879 3.548518 -6.032017 -1.270806 0.537684 0.000000 0.000000 0.000000 -2.834275 -15.839890 -40.541360 1.649027 8.093275 22.997615 -0.024056 6.132577 -8.062125 0.800835 -5.711675 -15.950248 0.000000 0.000000 0.000000 30.472545 -0.116469 21.518062 -0.093882 -1.975443 5.437769 -0.132306 1.443560 -6.516669 -0.292375 3.475682 -9.606225 6.955595 1.681083 1.957349 2.791640 2.402391 0.369884 -1.071303 1.189513 -0.551677 -5.339706 -3.317393 -8.594404 0.485942 -3.796741 14.033230 0.739377 -2.091215 5.773858 0.000000 0.000000 0.000000 22.974072 -59.752970 -22.917273 21.883365 -32.844887 6.522442 21.104593 -21.793639 -17.245826 0.000000 0.000000 0.000000 -7.125000 0.000000 0.000000 -6.620389 48.272474 0.536680 0.000000 0.000000 0.000000 2.151823 5.947976 -30.702175 -5.578841 -9.557939 -0.466773 -19.333615 22.719827 -29.946888 0.000000 0.000000 0.000000 7.125000 0.000000 0.000000 6.741033 -1.233875 6.932441
16.123226 18.295950 3.625885 -6.048823 -1.396089 0.621758 0.000000 0.000000 0.000000 -2.917986 -15.770926 -40.358265 1.678358 8.160825 23.203900 -0.030359 6.095368 -7.800975 0.798209 -5.702584 -15.923947 0.000000 0.000000 0.000000 30.454203 -0.058736 21.431847 -0.113315 -2.158660 5.944717 -0.128508 1.558904 -6.406537 -0.368005 3.866195 -10.704316 6.935233 1.708636 1.806048 2.752937 2.426227 0.332958 -1.095624 1.202118 -0.502348 -5.348029 -3.329231 -8.570366 0.548118 -3.822597 14.034442 0.758608 -2.099902 5.772161 0.000000 0.000000 0.000000 22.864061 -59.384718 -23.202542 21.982791 -32.957281 6.576579 21.189031 -21.952494 -17.113756 0.000000 0.000000 0.000000 -7.125000 0.000000 0.000000 -6.507025 48.146383 0.507632 0.000000 0.000000 0.000000 2.209233 5.664687 -30.604365 -5.596617 -9.587755 -0.469722 -19.297900 22.942758 -29.817323 0.000000 0.000000 0.000000 7.125000 0.000000 0.000000 6.746407 -1.095745 6.921977
16.133205 18.287022 3.703253 -6.065630 -1.521371 0.705832 0.000000 0.000000 0.000000 -3.001696 -15.701962 -40.175169 1.707689 8.228375 23.410186 -0.036661 6.058159 -7.539825 0.795583 -5.693494 -15.897646 0.000000 0.000000 0.000000 30.435861 -0.001004 21.345632 -0.132747 -2.341877 6.451664 -0.124711 1.674248 -6.296405 -0.443635 4.256708 -11.802406 6.914871 1.736190 1.654748 2.714233 2.450064 0.296032 -1.119945 1.214723 -0.453019 -5.356351 -3.341068 -8.546327 0.610295 -3.848454 14.035654 0.777838 -2.108588 5.770464 0.000000 0.000000 0.000000 22.754050 -59.016466 -23.487811 22.082217 -33.069676 6.630716 21.273468 -22.111349 -16.981686 0.000000 0.000000 0.000000 -7.125000 0.000000 0.000000 -6.393661 48.020293 0.478584 0.000000 0.000000 0.000000 2.266642 5.381397 -30.506555 -5.614393 -9.617571 -0.472672 -19.262186 23.165689 -29.687758 0.000000 0.000000 0.000000 7.125000 0.000000 0.000000 6.751780 -0.957616 6.911513
16.144117 18.278493 3.780309 -6.059389 -1.650295 0.835512 0.000000 0.000000 0.000000 -3.125972 -15.617056 -40.029886 1.738552 8.298456 23.624710 -0.043252 6.047750 -7.299391 0.837386 -5.830837 -16.296257 0.000000 0.000000 0.000000 30.382460 0.078333 21.241055 -0.152224 -2.509063 6.914981 -0.121313 1.792056 -6.199573 -0.479832 4.442236 -12.324288 6.877746 1.779374 1.470719 2.670866 2.492507 0.243519 -1.138893 1.236431 -0.400603 -5.354083 -3.345601 -8.522622 0.674736 -3.866228 14.032226 0.796758 -2.112567 5.766925 0.000000 0.000000 0.000000 22.537639 -58.657028 -23.814290 22.172606 -33.171457 6.680101 21.249707 -22.227263 -16.871331 0.000000 0.000000 0.000000 -7.125000 0.000000 0.000000 -6.388917 47.901241 0.458839 0.000000 0.000000 0.000000 2.321187 5.114916 -30.375994 -5.638986 -9.658755 -0.476798 -19.229758 23.314193 -29.504860 0.000000 0.000000 0.000000 7.125000 0.000000 0.000000 6.749337 -0.765908 6.886639
16.155793 18.270291 3.857111 -6.034260 -1.782203 1.002569 0.000000 0.000000 0.000000 -3.283494 -15.519084 -39.915592 1.770670 8.370611 23.845984 -0.050080 6.059305 -7.075935 0.915602 -6.088190 -17.043104 0.000000 0.000000 0.000000 30.300325 0.175376 21.121429 -0.171738 -2.663110 7.342542 -0.118242 1.911884 -6.113641 -0.483710 4.459770 -12.373941 6.826881 1.835370 1.259868 2.623678 2.550199 0.178231 -1.153438 1.265600 -0.345658 -5.343134 -3.344146 -8.499189 0.741034 -3.877379 14.024994 0.815423 -2.112688 5.761874 0.000000 0.000000 0.000000 22.234028 -58.304815 -24.174543 22.255589 -33.264540 6.725592 21.137272 -22.307983 -16.778773 0.000000 0.000000 0.000000 -7.125000 0.000000 0.000000 -6.473193 47.787957 0.446719 0.000000 0.000000 0.000000 2.373385 4.862210 -30.218593 -5.669165 -9.709255 -0.481888 -19.200023 23.401701 -29.278252 0.000000 0.000000 0.000000 7.125000 0.000000 0.000000 6.740490 -0.530291 6.849955
16.167393 18.262015 3.934324 -6.006988 -1.914700 1.160112 0.000000 0.000000 0.000000 -3.448054 -15.419701 -39.787235 1.802852 8.442761 24.067328 -0.056881 6.073459 -6.856581 0.992559 -6.340016 -17.774346 0.000000 0.000000 0.000000 30.215838 0.268812 21.008416 -0.191816 -2.819379 7.776391 -0.115559 2.030793 -6.038133 -0.485254 4.466378 -12.392717 6.773892 1.889986 1.055165 2.575862 2.606461 0.116096 -1.167564 1.294103 -0.291077 -5.334713 -3.342590 -8.487092 0.809663 -3.887712 14.028463 0.835041 -2.112442 5.762206 0.000000 0.000000 0.000000 21.932692 -57.949976 -24.524969 22.338308 -33.357284 6.770957 21.023608 -22.376224 -16.704901 0.000000 0.000000 0.000000 -7.125000 0.000000 0.000000 -6.563244 47.694062 0.438192 0.000000 0.000000 0.000000 2.427635 4.620027 -29.964945 -5.705262 -9.769640 -0.488015 -19.179976 23.373327 -29.060747 0.000000 0.000000 0.000000 7.125000 0.000000 0.000000 6.727047 -0.305685 6.809864
